<?xml version="1.0" encoding="UTF-8" standalone="no"?>
<!-- Created with Inkscape (http://www.inkscape.org/) -->

<svg
   xmlns:dc="http://purl.org/dc/elements/1.1/"
   xmlns:cc="http://creativecommons.org/ns#"
   xmlns:rdf="http://www.w3.org/1999/02/22-rdf-syntax-ns#"
   xmlns:svg="http://www.w3.org/2000/svg"
   xmlns="http://www.w3.org/2000/svg"
   xmlns:sodipodi="http://sodipodi.sourceforge.net/DTD/sodipodi-0.dtd"
   xmlns:inkscape="http://www.inkscape.org/namespaces/inkscape"
   width="50"
   height="50"
   id="svg2"
   version="1.1"
   inkscape:version="0.48.3.1 r9886"
   sodipodi:docname="icon.svg">
  <defs
     id="defs4" />
  <sodipodi:namedview
     id="base"
     pagecolor="#ffffff"
     bordercolor="#666666"
     borderopacity="1.0"
     inkscape:pageopacity="0.0"
     inkscape:pageshadow="2"
     inkscape:zoom="17.6"
     inkscape:cx="24.943182"
     inkscape:cy="25"
     inkscape:document-units="px"
     inkscape:current-layer="layer1"
     showgrid="false"
     inkscape:showpageshadow="false"
     borderlayer="true"
     inkscape:window-width="1855"
     inkscape:window-height="1056"
     inkscape:window-x="65"
     inkscape:window-y="24"
     inkscape:window-maximized="1" />
  <metadata
     id="metadata7">
    <rdf:RDF>
      <cc:Work
         rdf:about="">
        <dc:format>image/svg+xml</dc:format>
        <dc:type
           rdf:resource="http://purl.org/dc/dcmitype/StillImage" />
        <dc:title />
      </cc:Work>
    </rdf:RDF>
  </metadata>
  <g
     inkscape:label="Layer 1"
     inkscape:groupmode="layer"
     id="layer1"
     transform="translate(0,-1002.3622)">
    <path
       style="color:#000000;fill:#d0ff25;fill-opacity:1;fill-rule:nonzero;stroke:none;stroke-width:2;marker:none;visibility:visible;display:inline;overflow:visible;enable-background:accumulate"
       d="M 12 9 L 12 11 L 12 13 L 14 13 L 16 13 L 16 11 L 16 9 L 14 9 L 12 9 z M 16 13 L 16 15 L 16 17 L 14 17 L 12 17 L 12 19 L 12 21 L 10 21 L 8 21 L 8 23 L 8 25 L 6 25 L 4 25 L 4 27 L 4 29 L 4 31 L 4 33 L 4 35 L 4 37 L 6 37 L 8 37 L 8 35 L 8 33 L 8 31 L 8 29 L 10 29 L 12 29 L 12 31 L 12 33 L 12 35 L 12 37 L 14 37 L 16 37 L 16 35 L 16 33 L 18 33 L 20 33 L 22 33 L 24 33 L 26 33 L 28 33 L 30 33 L 32 33 L 34 33 L 34 35 L 34 37 L 36 37 L 38 37 L 38 35 L 38 33 L 38 31 L 38 29 L 40 29 L 42 29 L 42 31 L 42 33 L 42 35 L 42 37 L 44 37 L 46 37 L 46 35 L 46 33 L 46 31 L 46 29 L 46 27 L 46 25 L 44 25 L 42 25 L 42 23 L 42 21 L 40 21 L 38 21 L 38 19 L 38 17 L 36 17 L 34 17 L 34 15 L 34 13 L 32 13 L 30 13 L 30 15 L 30 17 L 28 17 L 26 17 L 24 17 L 22 17 L 20 17 L 20 15 L 20 13 L 18 13 L 16 13 z M 34 13 L 36 13 L 38 13 L 38 11 L 38 9 L 36 9 L 34 9 L 34 11 L 34 13 z M 34 37 L 32 37 L 30 37 L 30 39 L 30 41 L 32 41 L 34 41 L 34 39 L 34 37 z M 16 37 L 16 39 L 16 41 L 18 41 L 20 41 L 20 39 L 20 37 L 18 37 L 16 37 z M 16 21 L 18 21 L 20 21 L 20 23 L 20 25 L 18 25 L 16 25 L 16 23 L 16 21 z M 30 21 L 32 21 L 34 21 L 34 23 L 34 25 L 32 25 L 30 25 L 30 23 L 30 21 z "
       transform="translate(0,1002.3622)"
       id="path4315-2" />
  </g>
</svg>
